<svg width="67" height="10" viewBox="0 0 67 10" fill="none" xmlns="http://www.w3.org/2000/svg">
<path d="M6.16406 8.08008V9H1.89844V8.08008H6.16406ZM2.12109 0.46875V9H0.990234V0.46875H2.12109ZM9.92578 9.11719C9.48438 9.11719 9.08398 9.04297 8.72461 8.89453C8.36914 8.74219 8.0625 8.5293 7.80469 8.25586C7.55078 7.98242 7.35547 7.6582 7.21875 7.2832C7.08203 6.9082 7.01367 6.49805 7.01367 6.05273V5.80664C7.01367 5.29102 7.08984 4.83203 7.24219 4.42969C7.39453 4.02344 7.60156 3.67969 7.86328 3.39844C8.125 3.11719 8.42188 2.9043 8.75391 2.75977C9.08594 2.61523 9.42969 2.54297 9.78516 2.54297C10.2383 2.54297 10.6289 2.62109 10.957 2.77734C11.2891 2.93359 11.5605 3.15234 11.7715 3.43359C11.9824 3.71094 12.1387 4.03906 12.2402 4.41797C12.3418 4.79297 12.3926 5.20312 12.3926 5.64844V6.13477H7.6582V5.25H11.3086V5.16797C11.293 4.88672 11.2344 4.61328 11.1328 4.34766C11.0352 4.08203 10.8789 3.86328 10.6641 3.69141C10.4492 3.51953 10.1562 3.43359 9.78516 3.43359C9.53906 3.43359 9.3125 3.48633 9.10547 3.5918C8.89844 3.69336 8.7207 3.8457 8.57227 4.04883C8.42383 4.25195 8.30859 4.5 8.22656 4.79297C8.14453 5.08594 8.10352 5.42383 8.10352 5.80664V6.05273C8.10352 6.35352 8.14453 6.63672 8.22656 6.90234C8.3125 7.16406 8.43555 7.39453 8.5957 7.59375C8.75977 7.79297 8.95703 7.94922 9.1875 8.0625C9.42188 8.17578 9.6875 8.23242 9.98438 8.23242C10.3672 8.23242 10.6914 8.1543 10.957 7.99805C11.2227 7.8418 11.4551 7.63281 11.6543 7.37109L12.3105 7.89258C12.1738 8.09961 12 8.29688 11.7891 8.48438C11.5781 8.67188 11.3184 8.82422 11.0098 8.94141C10.7051 9.05859 10.3438 9.11719 9.92578 9.11719ZM17.3965 7.91602V4.65234C17.3965 4.40234 17.3457 4.18555 17.2441 4.00195C17.1465 3.81445 16.998 3.66992 16.7988 3.56836C16.5996 3.4668 16.3535 3.41602 16.0605 3.41602C15.7871 3.41602 15.5469 3.46289 15.3398 3.55664C15.1367 3.65039 14.9766 3.77344 14.8594 3.92578C14.7461 4.07812 14.6895 4.24219 14.6895 4.41797H13.6055C13.6055 4.19141 13.6641 3.9668 13.7812 3.74414C13.8984 3.52148 14.0664 3.32031 14.2852 3.14062C14.5078 2.95703 14.7734 2.8125 15.082 2.70703C15.3945 2.59766 15.7422 2.54297 16.125 2.54297C16.5859 2.54297 16.9922 2.62109 17.3438 2.77734C17.6992 2.93359 17.9766 3.16992 18.1758 3.48633C18.3789 3.79883 18.4805 4.19141 18.4805 4.66406V7.61719C18.4805 7.82812 18.498 8.05273 18.5332 8.29102C18.5723 8.5293 18.6289 8.73438 18.7031 8.90625V9H17.5723C17.5176 8.875 17.4746 8.70898 17.4434 8.50195C17.4121 8.29102 17.3965 8.0957 17.3965 7.91602ZM17.584 5.15625L17.5957 5.91797H16.5C16.1914 5.91797 15.916 5.94336 15.6738 5.99414C15.4316 6.04102 15.2285 6.11328 15.0645 6.21094C14.9004 6.30859 14.7754 6.43164 14.6895 6.58008C14.6035 6.72461 14.5605 6.89453 14.5605 7.08984C14.5605 7.28906 14.6055 7.4707 14.6953 7.63477C14.7852 7.79883 14.9199 7.92969 15.0996 8.02734C15.2832 8.12109 15.5078 8.16797 15.7734 8.16797C16.1055 8.16797 16.3984 8.09766 16.6523 7.95703C16.9062 7.81641 17.1074 7.64453 17.2559 7.44141C17.4082 7.23828 17.4902 7.04102 17.502 6.84961L17.9648 7.37109C17.9375 7.53516 17.8633 7.7168 17.7422 7.91602C17.6211 8.11523 17.459 8.30664 17.2559 8.49023C17.0566 8.66992 16.8184 8.82031 16.541 8.94141C16.2676 9.05859 15.959 9.11719 15.6152 9.11719C15.1855 9.11719 14.8086 9.0332 14.4844 8.86523C14.1641 8.69727 13.9141 8.47266 13.7344 8.19141C13.5586 7.90625 13.4707 7.58789 13.4707 7.23633C13.4707 6.89648 13.5371 6.59766 13.6699 6.33984C13.8027 6.07812 13.9941 5.86133 14.2441 5.68945C14.4941 5.51367 14.7949 5.38086 15.1465 5.29102C15.498 5.20117 15.8906 5.15625 16.3242 5.15625H17.584ZM21.2695 3.65625V9H20.1855V2.66016H21.2402L21.2695 3.65625ZM23.25 2.625L23.2441 3.63281C23.1543 3.61328 23.0684 3.60156 22.9863 3.59766C22.9082 3.58984 22.8184 3.58594 22.7168 3.58594C22.4668 3.58594 22.2461 3.625 22.0547 3.70312C21.8633 3.78125 21.7012 3.89062 21.5684 4.03125C21.4355 4.17188 21.3301 4.33984 21.252 4.53516C21.1777 4.72656 21.1289 4.9375 21.1055 5.16797L20.8008 5.34375C20.8008 4.96094 20.8379 4.60156 20.9121 4.26562C20.9902 3.92969 21.1094 3.63281 21.2695 3.375C21.4297 3.11328 21.6328 2.91016 21.8789 2.76562C22.1289 2.61719 22.4258 2.54297 22.7695 2.54297C22.8477 2.54297 22.9375 2.55273 23.0391 2.57227C23.1406 2.58789 23.2109 2.60547 23.25 2.625ZM25.3359 4.01367V9H24.252V2.66016H25.2773L25.3359 4.01367ZM25.0781 5.58984L24.627 5.57227C24.6309 5.13867 24.6953 4.73828 24.8203 4.37109C24.9453 4 25.1211 3.67773 25.3477 3.4043C25.5742 3.13086 25.8438 2.91992 26.1562 2.77148C26.4727 2.61914 26.8223 2.54297 27.2051 2.54297C27.5176 2.54297 27.7988 2.58594 28.0488 2.67188C28.2988 2.75391 28.5117 2.88672 28.6875 3.07031C28.8672 3.25391 29.0039 3.49219 29.0977 3.78516C29.1914 4.07422 29.2383 4.42773 29.2383 4.8457V9H28.1484V4.83398C28.1484 4.50195 28.0996 4.23633 28.002 4.03711C27.9043 3.83398 27.7617 3.6875 27.5742 3.59766C27.3867 3.50391 27.1562 3.45703 26.8828 3.45703C26.6133 3.45703 26.3672 3.51367 26.1445 3.62695C25.9258 3.74023 25.7363 3.89648 25.5762 4.0957C25.4199 4.29492 25.2969 4.52344 25.207 4.78125C25.1211 5.03516 25.0781 5.30469 25.0781 5.58984ZM34.3828 0.46875H35.4785L38.2734 7.42383L41.0625 0.46875H42.1641L38.6953 9H37.8398L34.3828 0.46875ZM34.0254 0.46875H34.9922L35.1504 5.67188V9H34.0254V0.46875ZM41.5488 0.46875H42.5156V9H41.3906V5.67188L41.5488 0.46875ZM44.0508 5.90039V5.76562C44.0508 5.30859 44.1172 4.88477 44.25 4.49414C44.3828 4.09961 44.5742 3.75781 44.8242 3.46875C45.0742 3.17578 45.377 2.94922 45.7324 2.78906C46.0879 2.625 46.4863 2.54297 46.9277 2.54297C47.373 2.54297 47.7734 2.625 48.1289 2.78906C48.4883 2.94922 48.793 3.17578 49.043 3.46875C49.2969 3.75781 49.4902 4.09961 49.623 4.49414C49.7559 4.88477 49.8223 5.30859 49.8223 5.76562V5.90039C49.8223 6.35742 49.7559 6.78125 49.623 7.17188C49.4902 7.5625 49.2969 7.9043 49.043 8.19727C48.793 8.48633 48.4902 8.71289 48.1348 8.87695C47.7832 9.03711 47.3848 9.11719 46.9395 9.11719C46.4941 9.11719 46.0938 9.03711 45.7383 8.87695C45.3828 8.71289 45.0781 8.48633 44.8242 8.19727C44.5742 7.9043 44.3828 7.5625 44.25 7.17188C44.1172 6.78125 44.0508 6.35742 44.0508 5.90039ZM45.1348 5.76562V5.90039C45.1348 6.2168 45.1719 6.51562 45.2461 6.79688C45.3203 7.07422 45.4316 7.32031 45.5801 7.53516C45.7324 7.75 45.9219 7.91992 46.1484 8.04492C46.375 8.16602 46.6387 8.22656 46.9395 8.22656C47.2363 8.22656 47.4961 8.16602 47.7188 8.04492C47.9453 7.91992 48.1328 7.75 48.2812 7.53516C48.4297 7.32031 48.541 7.07422 48.6152 6.79688C48.6934 6.51562 48.7324 6.2168 48.7324 5.90039V5.76562C48.7324 5.45312 48.6934 5.1582 48.6152 4.88086C48.541 4.59961 48.4277 4.35156 48.2754 4.13672C48.127 3.91797 47.9395 3.74609 47.7129 3.62109C47.4902 3.49609 47.2285 3.43359 46.9277 3.43359C46.6309 3.43359 46.3691 3.49609 46.1426 3.62109C45.9199 3.74609 45.7324 3.91797 45.5801 4.13672C45.4316 4.35156 45.3203 4.59961 45.2461 4.88086C45.1719 5.1582 45.1348 5.45312 45.1348 5.76562ZM52.2656 3.65625V9H51.1816V2.66016H52.2363L52.2656 3.65625ZM54.2461 2.625L54.2402 3.63281C54.1504 3.61328 54.0645 3.60156 53.9824 3.59766C53.9043 3.58984 53.8145 3.58594 53.7129 3.58594C53.4629 3.58594 53.2422 3.625 53.0508 3.70312C52.8594 3.78125 52.6973 3.89062 52.5645 4.03125C52.4316 4.17188 52.3262 4.33984 52.248 4.53516C52.1738 4.72656 52.125 4.9375 52.1016 5.16797L51.7969 5.34375C51.7969 4.96094 51.834 4.60156 51.9082 4.26562C51.9863 3.92969 52.1055 3.63281 52.2656 3.375C52.4258 3.11328 52.6289 2.91016 52.875 2.76562C53.125 2.61719 53.4219 2.54297 53.7656 2.54297C53.8438 2.54297 53.9336 2.55273 54.0352 2.57227C54.1367 2.58789 54.207 2.60547 54.2461 2.625ZM57.7617 9.11719C57.3203 9.11719 56.9199 9.04297 56.5605 8.89453C56.2051 8.74219 55.8984 8.5293 55.6406 8.25586C55.3867 7.98242 55.1914 7.6582 55.0547 7.2832C54.918 6.9082 54.8496 6.49805 54.8496 6.05273V5.80664C54.8496 5.29102 54.9258 4.83203 55.0781 4.42969C55.2305 4.02344 55.4375 3.67969 55.6992 3.39844C55.9609 3.11719 56.2578 2.9043 56.5898 2.75977C56.9219 2.61523 57.2656 2.54297 57.6211 2.54297C58.0742 2.54297 58.4648 2.62109 58.793 2.77734C59.125 2.93359 59.3965 3.15234 59.6074 3.43359C59.8184 3.71094 59.9746 4.03906 60.0762 4.41797C60.1777 4.79297 60.2285 5.20312 60.2285 5.64844V6.13477H55.4941V5.25H59.1445V5.16797C59.1289 4.88672 59.0703 4.61328 58.9688 4.34766C58.8711 4.08203 58.7148 3.86328 58.5 3.69141C58.2852 3.51953 57.9922 3.43359 57.6211 3.43359C57.375 3.43359 57.1484 3.48633 56.9414 3.5918C56.7344 3.69336 56.5566 3.8457 56.4082 4.04883C56.2598 4.25195 56.1445 4.5 56.0625 4.79297C55.9805 5.08594 55.9395 5.42383 55.9395 5.80664V6.05273C55.9395 6.35352 55.9805 6.63672 56.0625 6.90234C56.1484 7.16406 56.2715 7.39453 56.4316 7.59375C56.5957 7.79297 56.793 7.94922 57.0234 8.0625C57.2578 8.17578 57.5234 8.23242 57.8203 8.23242C58.2031 8.23242 58.5273 8.1543 58.793 7.99805C59.0586 7.8418 59.291 7.63281 59.4902 7.37109L60.1465 7.89258C60.0098 8.09961 59.8359 8.29688 59.625 8.48438C59.4141 8.67188 59.1543 8.82422 58.8457 8.94141C58.541 9.05859 58.1797 9.11719 57.7617 9.11719ZM64.1719 8.10352L65.7012 5.74805L66.7324 5.75391V5.83008L65.0039 8.10352H64.1719ZM64.1719 3.43945H65.0039L66.7324 5.71875V5.79492L65.7012 5.80078L64.1719 3.43945Z" fill="white"/>
</svg>
